<svg width="22" height="20" viewBox="0 0 22 20" fill="none" xmlns="http://www.w3.org/2000/svg">
<path d="M7.50475 2.30596C7.89388 2.52634 8.217 2.83543 8.459 3.20462C8.80227 2.95959 9.20875 2.82839 9.625 2.82827H12.375C12.8081 2.82827 13.2096 2.96708 13.541 3.20462C13.783 2.83686 14.1061 2.52634 14.4952 2.30596L17.9328 0.354111C19.7656 -0.68621 22 0.694684 22 2.86691V9.94452C22 12.1167 19.7656 13.4976 17.9328 12.4573L14.4952 10.5055C14.1133 10.2887 13.7863 9.9807 13.541 9.60681C13.1977 9.85184 12.7913 9.98303 12.375 9.98316H9.625C9.20875 9.98303 8.80227 9.85184 8.459 9.60681C8.21369 9.9807 7.88665 10.2887 7.50475 10.5055L4.06725 12.4573C2.23438 13.4976 0 12.1167 0 9.94452V2.86691C0 0.694684 2.23438 -0.68621 4.06725 0.35268L7.50475 2.30596ZM4.8125 6.40571C4.8125 6.59547 4.88493 6.77746 5.01386 6.91164C5.1428 7.04582 5.31766 7.1212 5.5 7.1212H8.25V5.69023H5.5C5.31766 5.69023 5.1428 5.76561 5.01386 5.89979C4.88493 6.03397 4.8125 6.21596 4.8125 6.40571ZM16.5 5.69023H13.75V7.1212H16.5C16.6823 7.1212 16.8572 7.04582 16.9861 6.91164C17.1151 6.77746 17.1875 6.59547 17.1875 6.40571C17.1875 6.21596 17.1151 6.03397 16.9861 5.89979C16.8572 5.76561 16.6823 5.69023 16.5 5.69023ZM8.66938 11.4857C8.492 11.5801 8.349 11.6574 8.16337 11.7619L4.87025 13.6322L3.553 17.0579C3.42812 17.3836 3.3818 17.7361 3.41807 18.0846C3.45434 18.4332 3.57211 18.7672 3.76108 19.0575C3.95006 19.3478 4.20447 19.5854 4.50209 19.7497C4.79971 19.914 5.13148 20 5.46838 20H7.5625C8.10951 20 8.63411 19.7739 9.02091 19.3713C9.4077 18.9688 9.625 18.4228 9.625 17.8535V11.4141H8.8L8.66938 11.4857ZM12.375 17.8535V11.4141H13.1917L13.4489 11.5515C13.5754 11.6188 13.6964 11.6832 13.8366 11.7619L17.1297 13.6307L18.447 17.0565C18.5722 17.3822 18.6187 17.7349 18.5826 18.0836C18.5464 18.4324 18.4287 18.7666 18.2397 19.0571C18.0507 19.3476 17.7962 19.5854 17.4984 19.7498C17.2006 19.9141 16.8687 20.0001 16.5316 20H14.4375C13.8905 20 13.3659 19.7739 12.9791 19.3713C12.5923 18.9688 12.375 18.4228 12.375 17.8535Z" fill="#EB6179"/>
</svg>
